# xmcd
#
# Track frame offsets: 
#        150
#        10062
#        23367
#        37465
#        50902
#        65282
#        77030
#        92447
#        107197
#        118970
#        132225
#        142497
#        153087
#        163645
#        175572
#        186600
#        196282
#        212262
#        225992
#        241147
#        254382
#        267197
#
# Disc length: 3710 seconds
#
# Revision: 2
# Processed by: cddbd v1.5.2PL0 Copyright (c) Steve Scherf et al.
# Submitted via: ExactAudioCopy v1.0b4
#
DISCID=2d0e7c16
DTITLE=Howlin'  Wolf - Ain't  Gonna Be Your Dog  -  Disc 1
DYEAR=1900
DGENRE=
TTITLE0=Look-a-here Baby
TTITLE1=California Blues #1
TTITLE2=Worried All The Time
TTITLE3=Everybody's In The Mood
TTITLE4=Color And Kind
TTITLE5=Dorothy Mae
TTITLE6=Sweet Woman
TTITLE7=Decoration Day
TTITLE8=Oh Red
TTITLE9=I'm Not Joking
TTITLE10=Highway My Friend
TTITLE11=Hold Your Money
TTITLE12=California Blues #2
TTITLE13=Stay Here Til My Baby Comes Back
TTITLE14=Come To Me Baby
TTITLE15=So Glad
TTITLE16=Bluebird
TTITLE17=My Life
TTITLE18=You Ought To Know
TTITLE19=Nature (Alternative Take)
TTITLE20=Walk To Camp Hall
TTITLE21=Poor Boy (Alternative Take)
EXTD=
EXTT0=
EXTT1=
EXTT2=
EXTT3=
EXTT4=
EXTT5=
EXTT6=
EXTT7=
EXTT8=
EXTT9=
EXTT10=
EXTT11=
EXTT12=
EXTT13=
EXTT14=
EXTT15=
EXTT16=
EXTT17=
EXTT18=
EXTT19=
EXTT20=
EXTT21=
PLAYORDER=
